<svg width="103" height="20" viewBox="0 0 103 20" fill="none" xmlns="http://www.w3.org/2000/svg">
<path d="M18.437 13.8109C20.6442 13.8109 22.4335 12.0216 22.4335 9.81435C22.4335 7.60712 20.6442 5.81781 18.437 5.81781C16.2297 5.81781 14.4404 7.60712 14.4404 9.81435C14.4404 12.0216 16.2297 13.8109 18.437 13.8109Z" stroke="white" stroke-width="0.376676" stroke-miterlimit="10"/>
<path d="M18.3588 12.5729C19.8413 12.5729 21.0432 11.371 21.0432 9.88846C21.0432 8.40588 19.8413 7.20401 18.3588 7.20401C16.8762 7.20401 15.6743 8.40588 15.6743 9.88846C15.6743 11.371 16.8762 12.5729 18.3588 12.5729Z" fill="white" stroke="white" stroke-width="0.251118" stroke-miterlimit="10"/>
<path d="M36.1556 19.2386C36.1792 19.1923 28.1142 15.0356 18.1419 9.95451C8.16963 4.87338 0.0663631 0.791874 0.0427519 0.838214C0.0191407 0.884553 8.08413 5.04119 18.0564 10.1223C28.0287 15.2035 36.132 19.285 36.1556 19.2386Z" fill="white" stroke="white" stroke-width="0.0313897" stroke-miterlimit="10"/>
<path d="M27.9272 16.6781C27.9588 16.6187 22.4889 13.6486 15.7098 10.0441C8.93069 6.43956 3.40956 3.56568 3.37798 3.62507C3.3464 3.68446 8.81634 6.65463 15.5954 10.2591C22.3745 13.8636 27.8956 16.7375 27.9272 16.6781Z" fill="white" stroke="white" stroke-width="0.0313897" stroke-miterlimit="10"/>
<path d="M32.1929 16.1044C32.2244 16.045 26.7545 13.0748 19.9754 9.47031C13.1963 5.8658 7.67518 2.99192 7.6436 3.05131C7.61203 3.1107 13.082 6.08087 19.861 9.68538C26.6401 13.2899 32.1613 16.1638 32.1929 16.1044Z" fill="white" stroke="white" stroke-width="0.0313897" stroke-miterlimit="10"/>
<path d="M18.4368 16.7125C22.2465 16.7125 25.335 13.6241 25.335 9.81434C25.335 6.00457 22.2465 2.91614 18.4368 2.91614C14.627 2.91614 11.5386 6.00457 11.5386 9.81434C11.5386 13.6241 14.627 16.7125 18.4368 16.7125Z" stroke="white" stroke-width="0.376676" stroke-miterlimit="10"/>
<path d="M18.4369 17.1482C22.4873 17.1482 25.7708 13.8648 25.7708 9.81436C25.7708 5.76396 22.4873 2.48047 18.4369 2.48047C14.3865 2.48047 11.103 5.76396 11.103 9.81436C11.103 13.8648 14.3865 17.1482 18.4369 17.1482Z" stroke="white" stroke-width="0.251118" stroke-miterlimit="10"/>
<path d="M18.3591 15.5311C21.5073 15.5311 24.0594 12.9789 24.0594 9.83068C24.0594 6.68245 21.5073 4.13031 18.3591 4.13031C15.2108 4.13031 12.6587 6.68245 12.6587 9.83068C12.6587 12.9789 15.2108 15.5311 18.3591 15.5311Z" stroke="white" stroke-width="0.125559" stroke-miterlimit="10"/>
<path d="M18.4372 14.5768C21.0675 14.5768 23.1997 12.4446 23.1997 9.81436C23.1997 7.18413 21.0675 5.05191 18.4372 5.05191C15.807 5.05191 13.6748 7.18413 13.6748 9.81436C13.6748 12.4446 15.807 14.5768 18.4372 14.5768Z" stroke="white" stroke-width="0.376676" stroke-miterlimit="10"/>
<path d="M26.3744 9.88849C26.3744 6.0261 23.6123 2.88447 19.9258 2.00227C23.856 2.66085 26.8704 5.88628 26.8704 9.88849C26.8704 13.8876 23.8383 17.0557 19.9068 17.7044C23.5961 16.8336 26.3744 13.7494 26.3744 9.88849Z" fill="white" stroke="white" stroke-width="0.125559"/>
<path d="M12.1315 3.41548C13.4133 2.11847 15.0487 1.25039 16.8142 0.906116C15.1933 1.32577 13.7058 2.18667 12.5266 3.41063C10.887 5.1124 9.97091 7.3835 9.97091 9.7466C9.97091 12.1097 10.887 14.3808 12.5266 16.0826C13.7106 17.3115 15.2053 18.1744 16.8338 18.5921C15.0608 18.2505 13.418 17.3808 12.1315 16.079C10.4651 14.3929 9.53055 12.1178 9.53055 9.74723C9.53055 7.37663 10.4651 5.10158 12.1315 3.41548Z" fill="white" stroke="white" stroke-width="0.125559"/>
<path d="M60.554 17.1187H52.998V4.42542H60.5444L60.0091 5.75872H54.2145V9.95904H59.5284V11.5798H54.2145V15.9128H59.8676L60.554 17.1187Z" fill="white" stroke="#1D1D1B" stroke-width="0.0878912" stroke-miterlimit="10"/>
<path d="M72.1945 10.677C71.7265 10.2389 71.1754 9.89911 70.5738 9.67766C70.7236 9.5724 70.8645 9.4548 70.9948 9.32609C71.5124 8.81193 71.8236 8.15274 71.8236 7.43292C71.8192 6.85027 71.6185 6.28611 71.254 5.83154C70.6098 5.00624 69.4822 4.45868 68.1981 4.45868H65.9683H64.6675V17.0271L65.9674 17.0447L67.734 17.0684L69.2941 17.0895C70.4252 16.9515 71.4254 16.4883 72.1497 15.8177C72.895 15.1287 73.3476 14.2225 73.3476 13.2285C73.3494 12.2529 72.9134 11.3573 72.1945 10.677ZM65.9674 5.8289H68.9601C69.8161 6.11718 70.4129 6.74121 70.4244 7.46719C70.4248 7.4748 70.4248 7.48243 70.4244 7.49004C70.4243 7.60611 70.4089 7.72166 70.3787 7.8337C70.1563 8.68185 69.1236 9.32345 67.8843 9.32345H65.9674V5.8289ZM68.8432 15.8177H65.9674V10.677H69.5753C71.0554 10.9407 72.1611 11.976 72.1611 13.2162C72.1611 14.6532 70.6757 15.8177 68.8432 15.8177Z" fill="white" stroke="#1D1D1B" stroke-width="0.0878912" stroke-miterlimit="10"/>
<path d="M101.166 13.9888L100.63 12.7012L97.0061 4L93.2004 12.6643L92.6177 13.9888H99.649L100.973 17.0527H102.44L101.166 13.9888ZM94.7394 12.6705L96.9577 7.76174L99.0891 12.6933L94.7394 12.6705Z" fill="white" stroke="#1D1D1B" stroke-width="0.0878912" stroke-miterlimit="10"/>
<path d="M84.7386 13.6556C84.6809 14.0537 84.5475 14.4371 84.3458 14.785C84.0793 15.2731 83.7319 15.7123 83.3183 16.0841C82.9155 16.4392 82.4462 16.7107 81.9376 16.8828C81.4289 17.055 80.8912 17.1244 80.3555 17.0869C79.5328 17.0368 78.8025 16.956 78.1389 16.5139C77.5368 16.1122 77.0016 15.6446 76.6606 14.9151C76.4848 14.5442 76.3969 14.4317 76.3011 13.9316C76.2513 13.6434 76.2219 13.3521 76.2132 13.0597L76.0928 4.26447H77.4498V12.3566C77.4814 12.8579 77.5765 13.3532 77.7328 13.8305C77.8828 14.2419 78.1262 14.6129 78.4439 14.9142C79.6822 16.1034 81.3205 15.8397 82.3436 15.0487C82.762 14.7244 83.2603 14.1434 83.3658 13.6486C83.4809 13.1081 83.473 12.7829 83.473 12.2924L83.4607 4.26622H84.8617C84.8617 5.31389 84.8406 7.04622 84.8432 8.77592C84.8432 10.1708 84.9065 11.5559 84.8432 12.6686C84.8204 12.9859 84.7826 13.4166 84.7386 13.6556Z" fill="white" stroke="#1D1D1B" stroke-width="0.0219728" stroke-miterlimit="10"/>
<path d="M50.0497 4.40686L50.0479 4.41038L45.1656 15.4126L44.4405 17.0456L43.7488 15.4319L39 4.35413H39.0062L40.4282 4.36028L40.6269 4.82434L44.4739 13.7989L48.5054 4.71536L48.6452 4.39983L50.0497 4.40686Z" fill="white" stroke="#1D1D1B" stroke-width="0.0439456" stroke-miterlimit="10"/>
<path d="M96.1412 17.1159H87.8618V4.38751H89.3533V15.823H95.5769L96.1412 17.1159Z" fill="white" stroke="#1D1D1B" stroke-width="0.0878912" stroke-miterlimit="10"/>
</svg>
